<?xml version="1.0" encoding="UTF-8" standalone="no"?>
<svg width="32px" height="32px" viewBox="0 0 32 32" version="1.1" xmlns="http://www.w3.org/2000/svg" xmlns:xlink="http://www.w3.org/1999/xlink">
    <!-- Generator: Sketch 39.1 (31720) - http://www.bohemiancoding.com/sketch -->
    <title>facebook</title>
    <desc>Created with Sketch.</desc>
    <defs></defs>
    <g id="Symbols" stroke="none" stroke-width="1" fill="none" fill-rule="evenodd">
        <g id="Footer" transform="translate(-728.000000, 0.000000)" fill="#CFD8DC">
            <g id="facebook" transform="translate(728.000000, 0.000000)">
                <path d="M15.9996098,32 C7.17736585,32 0,24.8222439 0,16 C0,7.1777561 7.17736585,0 15.9996098,0 C24.8222439,0 32,7.1777561 32,16 C32,24.8222439 24.8222439,32 15.9996098,32 L15.9996098,32 Z M15.9996098,0.780487805 C7.60780488,0.780487805 0.780487805,7.60819512 0.780487805,16 C0.780487805,24.3918049 7.60780488,31.2195122 15.9996098,31.2195122 C24.3918049,31.2195122 31.2195122,24.3918049 31.2195122,16 C31.2195122,7.60819512 24.3918049,0.780487805 15.9996098,0.780487805 L15.9996098,0.780487805 Z" id="Shape"></path>
                <path d="M14.0628293,13.6210732 L14.0628293,12.2099512 C14.0628293,11.587122 14.078439,10.627122 14.5303415,10.0327805 C15.0068293,9.40331707 15.6604878,8.97521951 16.7851707,8.97521951 C18.6173659,8.97521951 19.388878,9.23668293 19.388878,9.23668293 L19.025561,11.3884878 C19.025561,11.3884878 18.4202927,11.2132683 17.8556098,11.2132683 C17.2909268,11.2132683 16.7851707,11.4158049 16.7851707,11.9800976 L16.7851707,13.6210732 L19.1016585,13.6210732 L18.9400976,15.7229268 L16.785561,15.7229268 L16.785561,23.024 L14.0632195,23.024 L14.0632195,15.7229268 L12.611122,15.7229268 L12.611122,13.6210732 L14.0628293,13.6210732 Z" id="Shape"></path>
            </g>
        </g>
    </g>
</svg>