<?xml version="1.0" encoding="UTF-8" standalone="no"?>
<svg width="32px" height="32px" viewBox="0 0 32 32" version="1.1" xmlns="http://www.w3.org/2000/svg" xmlns:xlink="http://www.w3.org/1999/xlink">
    <!-- Generator: Sketch 39.1 (31720) - http://www.bohemiancoding.com/sketch -->
    <title>instagram</title>
    <desc>Created with Sketch.</desc>
    <defs></defs>
    <g id="Symbols" stroke="none" stroke-width="1" fill="none" fill-rule="evenodd">
        <g id="Footer" transform="translate(-808.000000, 0.000000)" fill="#CFD8DC">
            <g id="instagram" transform="translate(808.000000, 0.000000)">
                <path d="M16,32 C7.1777561,32 0,24.8222439 0,16 C0,7.1777561 7.1777561,0 16,0 C24.8222439,0 32,7.1777561 32,16 C32,24.8222439 24.8222439,32 16,32 L16,32 Z M16,0.780487805 C7.60780488,0.780487805 0.780487805,7.60780488 0.780487805,16 C0.780487805,24.3921951 7.60780488,31.2195122 16,31.2195122 C24.3921951,31.2195122 31.2195122,24.3921951 31.2195122,16 C31.2195122,7.60780488 24.3921951,0.780487805 16,0.780487805 L16,0.780487805 Z" id="Shape"></path>
                <path d="M20.3110244,8.98068293 L11.6924878,8.98068293 C10.1959024,8.98068293 8.97756098,10.1974634 8.97756098,11.6936585 L8.97756098,14.5588293 L8.97756098,20.3067317 C8.97756098,21.8029268 10.1959024,23.0197073 11.6924878,23.0197073 L20.3110244,23.0197073 C21.8076098,23.0197073 23.0263415,21.8029268 23.0263415,20.3067317 L23.0263415,14.5588293 L23.0263415,11.6936585 C23.0263415,10.1974634 21.8076098,8.98068293 20.3110244,8.98068293 L20.3110244,8.98068293 Z M21.089561,10.5990244 L21.3998049,10.5974634 L21.3998049,10.9069268 L21.3998049,12.9767805 L19.0267317,12.9853659 L19.0185366,10.6052683 L21.089561,10.5990244 L21.089561,10.5990244 Z M13.9972683,14.5588293 C14.4456585,13.9363902 15.1761951,13.5281951 16.0019512,13.5281951 C16.8277073,13.5281951 17.5570732,13.9363902 18.0062439,14.5588293 C18.2993171,14.9650732 18.4757073,15.4610732 18.4757073,16 C18.4757073,17.3627317 17.3654634,18.4702439 16.0019512,18.4702439 C14.6380488,18.4702439 13.5289756,17.3627317 13.5289756,16 C13.5289756,15.4610732 13.7045854,14.9650732 13.9972683,14.5588293 L13.9972683,14.5588293 Z M21.6573659,20.3063415 C21.6573659,21.0485854 21.0536585,21.651122 20.3110244,21.651122 L11.6924878,21.651122 C10.9498537,21.651122 10.3465366,21.0485854 10.3465366,20.3063415 L10.3465366,14.5588293 L12.4437073,14.5588293 C12.2630244,15.004878 12.1603902,15.4907317 12.1603902,16 C12.1603902,18.1174634 13.8837073,19.8388293 16.0019512,19.8388293 C18.1201951,19.8388293 19.843122,18.1174634 19.843122,16 C19.843122,15.4903415 19.7400976,15.0044878 19.5601951,14.5588293 L21.6573659,14.5588293 L21.6573659,20.3063415 L21.6573659,20.3063415 Z" id="Shape"></path>
            </g>
        </g>
    </g>
</svg>