<?xml version="1.0" encoding="UTF-8" standalone="no"?>
<svg width="32px" height="32px" viewBox="0 0 32 32" version="1.1" xmlns="http://www.w3.org/2000/svg" xmlns:xlink="http://www.w3.org/1999/xlink">
    <!-- Generator: Sketch 39.1 (31720) - http://www.bohemiancoding.com/sketch -->
    <title>linkedin</title>
    <desc>Created with Sketch.</desc>
    <defs></defs>
    <g id="Symbols" stroke="none" stroke-width="1" fill="none" fill-rule="evenodd">
        <g id="Footer" transform="translate(-848.000000, 0.000000)" fill="#CFD8DC">
            <g id="linkedin" transform="translate(848.000000, 0.000000)">
                <path d="M16,32 C7.1777561,32 0,24.8222439 0,16 C0,7.1777561 7.1777561,0 16,0 C24.8222439,0 32,7.1777561 32,16 C32,24.8222439 24.8222439,32 16,32 L16,32 Z M16,0.780487805 C7.60780488,0.780487805 0.780487805,7.60780488 0.780487805,16 C0.780487805,24.3921951 7.60780488,31.2195122 16,31.2195122 C24.3921951,31.2195122 31.2195122,24.3921951 31.2195122,16 C31.2195122,7.60780488 24.3921951,0.780487805 16,0.780487805 L16,0.780487805 Z" id="Shape"></path>
                <path d="M12.0686829,21.8173659 L9.32878049,21.8173659 L9.32878049,13.0470244 L12.0686829,13.0470244 L12.0686829,21.8173659 L12.0686829,21.8173659 Z M10.6286829,11.9496585 L10.6083902,11.9496585 C9.61795122,11.9496585 8.97560976,11.2780488 8.97560976,10.428878 C8.97560976,9.56409756 9.63668293,8.90692683 10.6485854,8.90692683 C11.6577561,8.90692683 12.2790244,9.56292683 12.2989268,10.4273171 C12.2993171,11.2764878 11.6577561,11.9496585 10.6286829,11.9496585 L10.6286829,11.9496585 Z M23.0243902,21.8173659 L19.918439,21.8173659 L19.918439,17.2780488 C19.918439,16.0901463 19.4337561,15.28 18.3656585,15.28 C17.548878,15.28 17.0950244,15.8263415 16.883122,16.355122 C16.8027317,16.544 16.816,16.8066341 16.816,17.0712195 L16.816,21.8173659 L13.7397073,21.8173659 C13.7397073,21.8173659 13.7802927,13.777561 13.7397073,13.0466341 L16.816,13.0466341 L16.816,14.4218537 C16.9978537,13.820878 17.9804878,12.9623415 19.548878,12.9623415 C21.4950244,12.9623415 23.0243902,14.2232195 23.0243902,16.9400976 L23.0243902,21.8173659 L23.0243902,21.8173659 Z" id="Shape"></path>
            </g>
        </g>
    </g>
</svg>