<?xml version="1.0" encoding="UTF-8" standalone="no"?>
<svg width="32px" height="32px" viewBox="0 0 32 32" version="1.1" xmlns="http://www.w3.org/2000/svg" xmlns:xlink="http://www.w3.org/1999/xlink">
    <!-- Generator: Sketch 39.1 (31720) - http://www.bohemiancoding.com/sketch -->
    <title>twitter</title>
    <desc>Created with Sketch.</desc>
    <defs></defs>
    <g id="Symbols" stroke="none" stroke-width="1" fill="none" fill-rule="evenodd">
        <g id="Footer" transform="translate(-768.000000, 0.000000)" fill="#CFD8DC">
            <g id="twitter" transform="translate(768.000000, 0.000000)">
                <path d="M16.0003902,32 C7.17814634,32 0.000390243903,24.8222439 0.000390243903,16 C0.000390243903,7.1777561 7.17814634,0 16.0003902,0 C24.8222439,0 31.9996098,7.1777561 31.9996098,16 C31.9996098,24.8222439 24.8222439,32 16.0003902,32 L16.0003902,32 Z M16.0003902,0.780487805 C7.60819512,0.780487805 0.780878049,7.60780488 0.780878049,16 C0.780878049,24.3918049 7.60819512,31.2195122 16.0003902,31.2195122 C24.3921951,31.2195122 31.219122,24.3918049 31.219122,16 C31.219122,7.60780488 24.3921951,0.780487805 16.0003902,0.780487805 L16.0003902,0.780487805 Z" id="Shape"></path>
                <path d="M21.3689756,12.8565854 C21.964878,12.4999024 22.4218537,11.9356098 22.6360976,11.2628293 C22.0788293,11.5929756 21.4630244,11.8325854 20.8050732,11.9609756 C20.2809756,11.4009756 19.5309268,11.0513171 18.7016585,11.0513171 C17.1106341,11.0513171 15.8200976,12.3422439 15.8200976,13.9332683 C15.8200976,14.1596098 15.8442927,14.3793171 15.8942439,14.5900488 C13.4993171,14.4690732 11.376,13.3233171 9.95278049,11.5781463 C9.70458537,12.0054634 9.56331707,12.4999024 9.56331707,13.0282927 C9.56331707,14.0277073 10.0721951,14.9096585 10.844878,15.427122 C10.3734634,15.4126829 9.92819512,15.2819512 9.53873171,15.0673171 L9.53873171,15.102439 C9.53873171,16.4999024 10.5326829,17.6643902 11.8517073,17.9285854 C11.6101463,17.9960976 11.3557073,18.030439 11.0922927,18.030439 C10.9065366,18.030439 10.7262439,18.012878 10.5502439,17.9793171 C10.9166829,19.1242927 11.9804878,19.9574634 13.2421463,19.9797073 C12.2556098,20.7531707 11.0119024,21.2140488 9.66243902,21.2140488 C9.42985366,21.2140488 9.2,21.2011707 8.97482927,21.1738537 C10.2505366,21.9910244 11.7654634,22.4682927 13.3923902,22.4682927 C18.6954146,22.4682927 21.5933659,18.0772683 21.5933659,14.2673171 C21.5933659,14.142439 21.5910244,14.0171707 21.5851707,13.8946341 C22.1498537,13.4883902 22.6396098,12.9806829 23.0243902,12.403122 C22.5073171,12.6321951 21.9516098,12.7867317 21.3689756,12.8565854 Z" id="Shape"></path>
            </g>
        </g>
    </g>
</svg>